<?xml version="1.0" encoding="utf-8"?>
<!-- Uploaded to: SVG Repo, www.svgrepo.com, Generator: SVG Repo Mixer Tools -->
<svg width="800px" height="800px" viewBox="0 0 1024 1024" class="icon"  version="1.1" xmlns="http://www.w3.org/2000/svg"><path d="M699.55287 380.519637c-1.546828 15.468278-0.773414 30.936556 5.413897 45.63142-3.093656-10.054381-4.640483-20.882175-5.413897-31.709969v-12.374623c2.320242 21.655589 10.054381 44.084592 23.975831 62.646526 0 0 44.858006-6.187311 55.685801-69.607251-0.773414 5.413897-1.546828 10.827795-2.320242 15.468278 6.187311-20.108761 8.507553-41.76435 6.187311-61.873112-3.093656-27.069486-10.054381-53.365559-16.241692-79.661631 0.773414 0.773414 3.093656-0.773414 3.093656-2.320242-0.773414-3.093656-3.093656-3.093656-5.413898-1.546828-0.773414-3.093656-1.546828-6.187311-2.320241-8.507552-3.867069-13.92145-47.178248 71.927492-58.779456 106.731117-3.867069 11.601208-4.640483 24.749245-3.86707 37.123867zM549.510574 248.265861l0.773414-0.773414 0.773414 0.773414-0.773414-0.773414c19.335347-18.561934 29.389728-48.725076 23.975831-78.114803-3.867069-21.655589-16.241692-66.513595-25.522659-90.489426 1.546828-3.093656 2.320242-5.413897 3.86707-8.507553 0.773414 3.093656 1.546828 6.187311 1.546827 6.960725 3.093656 7.734139 6.960725 14.694864 9.280967 22.429003 4.640483 16.241692 8.507553 32.483384 12.374623 49.498489 3.867069 20.108761 6.187311 38.670695 1.546827 58.779456-0.773414 4.640483-6.960725 20.108761-13.148036 30.936556 10.827795-13.148036 17.78852-28.616314 20.108761-47.178247 1.546828-20.882175-6.960725-41.76435-11.601208-61.873112-4.640483-17.78852-6.960725-37.123867-13.148036-54.138973-0.773414-2.320242-3.867069-13.92145-7.734139-8.507553v0.773414c-1.546828 3.093656-2.320242 6.187311-3.86707 8.507553-3.867069-9.280967-6.960725-14.694864-7.734139-11.601209-6.187311 15.468278-22.429003 64.193353-24.749244 81.20846-11.601208 78.114804 34.030211 102.090634 34.030211 102.090634z m-153.135952 324.833837c-28.616314-20.108761-68.060423-24.749245-100.543806-27.069487-0.773414 0-0.773414 0-0.773414 0.773414-0.773414 0-0.773414 0.773414 0 1.546828 0 0.773414 0.773414 1.546828 0.773414 1.546828h0.773414l0.773414 0.773414c0-0.773414-0.773414-0.773414-0.773414-0.773414 25.522659 2.320242 68.060423 4.640483 96.676737 20.882175-4.640483-2.320242-10.054381-3.867069-15.468278-5.413897-14.694864-4.640483-58.779456-9.280967-74.247734-10.054381-1.546828 0-1.546828 1.546828 0 4.640484-2.320242-3.093656-4.640483-6.187311-6.187311-9.280967 1.546828 3.093656 4.640483 8.507553 4.640483 9.280967 1.546828 2.320242 3.867069 4.640483 6.960725 6.187311 5.413897 6.187311 13.148036 14.694864 20.882175 22.429003 5.413897 6.187311 10.827795 12.374622 17.015106 17.788519l9.280967 6.960726c-9.280967-6.187311-17.015106-15.468278-24.749245-23.202417 9.280967 9.280967 20.108761 18.561934 27.8429 24.749244-0.773414-0.773414-1.546828-0.773414-3.093655-1.546827 1.546828 0.773414 3.093656 1.546828 4.640483 3.093655 0.773414 0.773414 1.546828 0.773414 2.320242 1.546828 19.335347 13.92145 47.951662 17.015106 71.927492 8.507553-0.773414 0.773414 4.640483-32.483384-38.670695-53.365559z m112.145015-120.652568c6.187311-14.694864 10.827795-29.389728 14.694865-43.311178 0-0.773414-0.773414-1.546828-1.546828-2.320242 0-0.773414-0.773414-1.546828-2.320242-0.773414 0-3.093656-3.093656 0.773414-4.640483 1.546828-13.148036 6.960725-26.296073 14.694864-37.123867 23.975831-29.389728 23.975831-55.685801 52.592145-53.365559 96.676737 0 0.773414 0.773414 1.546828 1.546827 1.546828 2.320242 0.773414 4.640483 0.773414 6.960726 0.773414v1.546827s35.577039 8.507553 65.740181-53.365559c2.320242-4.640483 6.187311-14.694864 10.05438-26.296072z m8.507553-44.858006z m-62.646525 54.912387c-15.468278 17.78852-23.975831 43.311178-22.429003 67.287009h-3.093656c-7.734139-0.773414-0.773414-30.163142 0.773414-35.57704 5.413897-18.561934 20.108761-30.163142 34.030211-42.537764 10.054381-8.507553 19.335347-17.78852 29.389729-25.522659l6.960725-4.640483c-16.241692 12.374622-36.350453 30.936556-45.63142 40.990937z m219.649546 2.320241c-10.827795 3.093656-20.108761 10.054381-26.296072 20.108762 0 0-0.773414 0.773414-0.773414 1.546827l0.773414-0.773414c-4.640483 6.187311-7.734139 13.92145-9.280967 21.65559 0 0 23.975831 27.8429 63.41994-2.320242 6.960725-5.413897 20.882175-20.882175 30.936556-33.256798h2.320241v0.773414c-22.429003 27.8429-65.740181 74.247734-99.770392 40.990937-1.546828-0.773414-1.546828-3.093656-0.773414-5.413897-0.773414 1.546828-1.546828 3.093656-1.546828 5.413897 0 0.773414-1.546828 0.773414-0.773414 0.773414 32.483384 40.217523 81.981873-12.374622 104.410876-39.444109 0.773414 0.773414 2.320242 0.773414 3.093656 0 0.773414-2.320242-0.773414-3.867069-4.640484-4.640483 2.320242-3.093656 4.640483-5.413897 6.187312-7.734139 2.320242-7.734139-48.725076-3.093656-67.28701 2.320241zM595.915408 594.755287c-3.093656 0.773414-6.187311 2.320242-9.280967 3.867069-3.867069 0.773414-6.960725 2.320242-10.827794 3.86707 2.320242-0.773414 4.640483-1.546828 6.187311-1.546828-10.827795 7.734139-19.335347 20.882175-23.202417 35.577039 0 0 10.827795 12.374622 29.389728 11.601209-12.374622 3.093656-25.522659 1.546828-37.123867-10.054381-3.093656-3.093656 1.546828-13.148036 6.187311-20.882175-3.867069 5.413897-7.734139 12.374622-10.054381 20.882175 0 0.773414-2.320242 2.320242-2.320241 3.093656 17.78852 21.655589 40.990937 16.241692 61.873111 2.320242 4.640483-2.320242 10.054381-5.413897 15.468278-9.280967 9.280967-6.960725 31.70997-33.256798 37.897281-42.537765 6.187311-6.187311-45.63142-1.546828-64.193353 3.093656zM504.652568 506.586103c-0.773414-1.546828-2.320242 0-3.86707 4.640483-0.773414-1.546828-0.773414-2.320242-1.546827-3.867069 0.773414-0.773414 0.773414-1.546828 0.773414-2.320242-4.640483-6.960725-15.468278 34.803625-16.241692 37.123867-7.734139 30.936556-7.734139 58.779456 13.148036 84.302115 0 0 0.773414 2.320242 1.546828 2.320241 3.093656-0.773414 5.413897-2.320242 7.734139-4.640483 0.773414 0.773414 1.546828 1.546828 1.546828 2.320242 0 0 27.8429-10.054381 17.015105-62.646526-2.320242-12.374622-15.468278-46.404834-20.108761-57.232628z m-4.640483 115.23867c-6.187311 3.867069-13.148036-10.054381-15.468278-14.694864-6.960725-13.92145-5.413897-30.163142-2.320242-44.858006 1.546828-10.054381 1.546828-20.882175 3.867069-30.163142 0.773414-2.320242 9.280967-19.335347 10.827795-23.97583 0.773414 1.546828 1.546828 3.867069 2.320242 5.413897-4.640483 13.92145-10.827795 43.311178-12.374623 57.232628-1.546828 16.241692 4.640483 35.577039 16.241692 49.49849-0.773414 0.773414-1.546828 1.546828-3.093655 1.546827z m224.29003-129.933534c-10.054381 6.187311-17.78852 17.015106-22.429003 27.8429-3.867069 5.413897-6.960725 11.601208-9.280967 19.335347 1.546828-3.093656 3.867069-6.960725 6.187311-10.05438l-2.320241 9.280967s23.975831 13.92145 56.459214-25.522659c5.413897-6.187311 15.468278-22.429003 22.429003-35.577039 0 0 0.773414 0 0.773414-0.773414-16.241692 28.616314-46.404834 80.435045-83.528701 66.513595-0.773414 0-1.546828-0.773414-0.773414-2.320242-0.773414 1.546828-0.773414 3.093656-1.546828 5.413897-3.093656 0-6.187311 0.773414-8.507553 0.773414-5.413897 0.773414-10.827795 4.640483-14.694864 8.507553-2.320242 0.773414-3.867069 2.320242-6.187311 3.86707 1.546828-0.773414 3.093656-1.546828 3.86707-1.546828-2.320242 3.093656-4.640483 6.960725-5.413898 10.827795 0 0 13.148036 16.241692 36.350454 0.773413-12.374622 10.827795-27.8429 17.78852-41.764351 4.640484-2.320242-2.320242 2.320242-10.054381 3.86707-13.148036-3.867069 3.867069-6.960725 8.507553-8.507553 13.92145 0 0.773414 0 0.773414 0.773414 1.546827 18.561934 23.202417 46.404834-3.093656 61.099698-18.561933h0.773413c0-0.773414 0-0.773414-0.773413-1.546828l6.960725-6.960725c3.093656-1.546828 6.187311-2.320242 9.280966-3.867069 23.202417-13.148036 37.897281-44.084592 51.818732-67.287009 0.773414-0.773414 0-1.546828-0.773414-2.320242 0 0-0.773414-0.773414-1.546828-0.773414 2.320242-4.640483 4.640483-8.507553 6.187311-10.827795 2.320242-5.413897-42.537764 17.015106-58.779456 27.842901zM596.688822 358.864048c-6.960725 3.093656-6.960725 29.389728-8.507553 35.57704-3.867069 17.015106-3.867069 31.70997 6.960725 44.858006-3.093656-5.413897-5.413897-16.241692-6.187311-18.561934 0-0.773414-0.773414-2.320242-0.773414-3.093655 1.546828 8.507553 6.187311 16.241692 11.601208 20.882175 0 0 3.867069-3.093656 7.734139-10.054381-0.773414 2.320242-2.320242 5.413897-3.867069 7.734139 3.093656-3.867069 4.640483-7.734139 5.413897-11.601208 2.320242-6.960725 3.867069-17.015106 1.546828-31.70997-1.546828-6.187311-6.960725-22.429003-10.827795-30.936556 0.773414-0.773414 1.546828-2.320242 0.773414-3.093656l-1.546828 1.546828c-0.773414-0.773414-0.773414-1.546828-0.773413-2.320242 0-0.773414-0.773414 0-1.546828 0.773414z m-102.864049 44.084592c0 0.773414 0 0.773414 0 0 0.773414 0.773414 4.640483 0 8.507553-4.640483 13.92145-13.148036 6.187311-47.178248 2.320242-61.873112 0-0.773414-1.546828-0.773414-2.320242-0.773414 0-0.773414-1.546828-1.546828-1.546828-1.546827-6.187311 1.546828-10.054381 20.882175-12.374622 26.296072-4.640483 12.374622-4.640483 23.202417 0 34.030212 0-1.546828-0.773414-2.320242-0.773414-3.86707 1.546828 5.413897 3.867069 9.280967 6.187311 12.374622z m-6.187311-36.350453c0-0.773414 0.773414-2.320242 2.320242-3.867069-0.773414 3.093656-2.320242 6.187311-2.320242 8.507553-0.773414-2.320242-0.773414-3.867069 0-4.640484z m212.688822-85.848942c0 1.546828 0 3.867069 0.773414 5.413897 0.773414 2.320242 1.546828 5.413897 2.320242 7.734139-1.546828-3.867069-1.546828-6.960725-2.320242-10.827795 0.773414 3.093656 2.320242 6.187311 4.640483 9.280967 0 0 20.108761-5.413897 19.335348-44.858006 0-4.640483-1.546828-14.694864-2.320242-24.749245 1.546828-3.867069 3.867069-7.734139 3.093656-8.507552 3.867069 24.749245 8.507553 68.833837-17.015106 82.755287-2.320242 0.773414-3.867069-0.773414-4.640484-3.093656 0.773414 3.093656 2.320242 5.413897 3.093656 8.507553 0 0.773414 0-1.546828 0.773414-2.320242 30.936556-7.734139 22.429003-62.646526 18.561933-85.848942 0.773414-0.773414 2.320242-1.546828 2.320242-1.546828 0-0.773414-3.093656-1.546828-3.093655-1.546828-1.546828 0-3.093656 0.773414-3.86707 2.320242-0.773414-3.867069-0.773414-6.187311-1.546828-8.507553-1.546828-5.413897-16.241692 31.70997-20.108761 46.404834-3.093656 9.280967-2.320242 20.108761 0 29.389728z m-27.069486-65.740182c2.320242 7.734139 6.187311 14.694864 13.148036 20.108762 0.773414 0.773414 0.773414-3.093656 1.546828-3.093656-3.093656-2.320242-9.280967-10.054381-10.827795-13.148036 2.320242 2.320242 3.867069 3.867069 6.187311 5.413897 0 0 15.468278-14.694864 4.640484-47.178248-1.546828-3.867069-5.413897-11.601208-9.280967-19.335347 0-2.320242 0-3.867069-0.773414-3.867069 0.773414 0.773414 1.546828 0 1.546828-0.773414 9.280967 16.241692 21.655589 40.217523 18.561933 61.099698 4.640483-20.108761-8.507553-45.63142-17.788519-61.873112v-1.546828l-0.773414 0.773414c-0.773414-0.773414-0.773414-0.773414-0.773414 0.773414l-0.773414 0.773414v-1.546828l-2.320242 2.320242c-2.320242-3.867069-3.867069-6.960725-5.413897-8.507553-2.320242-3.867069-5.413897 34.030211-4.640483 47.951661 0.773414 8.507553 3.867069 15.468278 7.734139 21.655589z m-59.552871-58.006042c-1.546828-3.867069-13.148036 26.296073-15.468277 37.123867-2.320242 10.827795 1.546828 22.429003 9.280966 30.163142 0.773414 2.320242 2.320242 3.867069 3.86707 6.187311 0 0 1.546828 1.546828 1.546828 0.773414 26.296073-9.280967 16.241692-48.725076 9.280966-69.60725 0.773414-0.773414 0.773414-1.546828 0-2.320242 0 0-0.773414 0-0.773414 0.773414-0.773414-1.546828-4.640483 0.773414-3.867069 2.320241v0.773414c-0.773414 0.773414-0.773414 1.546828-1.546828 1.546828 0-2.320242-1.546828-6.187311-2.320242-7.734139z m7.734139 4.640484z m-2.320241 5.413897c6.960725 20.108761 16.241692 47.178248-3.86707 59.55287-2.320242 1.546828-4.640483 0-6.960725-2.320242 3.093656-1.546828 17.78852-9.280967 14.694864-36.350453-0.773414-3.867069-2.320242-11.601208-4.640483-19.335347 0.773414 0 0.773414-0.773414 0.773414-1.546828z m-29.389728-13.92145l0.773414-0.773414c1.546828 1.546828 3.093656 2.320242 4.640483 3.867069-1.546828-0.773414-3.093656-2.320242-4.640483-3.867069 7.734139-7.734139 10.827795-18.561934 8.507552-29.389728-1.546828-5.413897-4.640483-15.468278-7.734139-23.975831 0.773414-2.320242 2.320242-5.413897 3.093656-7.734139v-0.773414c-0.773414 2.320242-2.320242 4.640483-3.093656 7.734139-3.093656-8.507553-6.187311-14.694864-6.960725-12.374622-2.320242 6.187311-8.507553 24.749245-10.05438 31.709969-3.093656 28.616314 15.468278 35.577039 15.468278 35.57704z m61.873111 43.311178v-11.601209c0-4.640483-15.468278 20.882175-20.108761 30.936556-3.867069 9.280967-3.867069 22.429003 0 31.70997 0 0 1.546828 0 3.093656-0.773414 0 2.320242 0.773414 3.867069 1.546828 6.187311 23.202417-2.320242 23.202417-43.311178 23.202416-61.099697 0-1.546828 0-2.320242 0 0 0 18.561934-1.546828 51.818731-21.655589 59.55287-3.093656 0.773414 0-2.320242 0-5.413898 4.640483-3.093656 10.827795-10.827795 13.148037-27.8429 0.773414-3.093656 0.773414-8.507553 0.773413-14.694864 3.093656-3.867069 6.187311-8.507553 6.960726-10.054381 0 0-0.773414 0-0.773414-0.773414-2.320242 0-4.640483 1.546828-6.187312 3.86707zM480.676737 139.214502c0.773414 0.773414 1.546828 2.320242 2.320242 3.093655 0.773414 0.773414-0.773414 0.773414 0 0.773414 16.241692-10.054381 18.561934-25.522659 18.561933-44.084592 0-6.960725 5.413897-30.936556 0-36.350453 0 0 0 2.320242-0.773414 2.320241l-0.773413-0.773414v0.773414l-0.773414 0.773414c-0.773414 6.960725 1.546828 29.389728 1.546827 33.256798 0 7.734139-2.320242 13.92145-3.867069 21.655589-0.773414 2.320242-9.280967 23.202417-12.374622 18.561934-0.773414-0.773414-0.773414-1.546828-1.546828-2.320242 4.640483-6.187311 8.507553-14.694864 9.280967-23.202417 0.773414-8.507553 0-24.749245-0.773414-36.350453 3.093656-3.867069 5.413897-8.507553 7.734139-11.601209 0-0.773414 0-1.546828 0.773414-1.546828-2.320242 3.867069-5.413897 7.734139-8.507553 12.374623-0.773414-7.734139-1.546828-12.374622-2.320242-10.827795-3.867069 6.187311-15.468278 24.749245-17.78852 31.70997-11.601208 31.70997 3.867069 47.178248 3.86707 47.178248 1.546828-1.546828 3.867069-3.093656 5.413897-5.413897z m-34.803625-5.413898c0.773414 0.773414 0.773414 1.546828 1.546828 1.546828l0.773413 0.773414c27.069486-9.280967 17.015106-47.951662 10.054381-68.833837v-1.546828h-0.773414-1.546828c0-0.773414 0-2.320242-0.773413-2.320241-3.093656 0.773414-6.187311 6.187311-8.507553 12.374622-0.773414-2.320242-1.546828-4.640483-2.320242-5.413897-1.546828-3.867069-13.148036 26.296073-15.468278 37.123867-2.320242 10.827795 1.546828 23.202417 9.280967 30.936556 0.773414 0 3.867069-0.773414 7.734139-4.640484z m8.507553-31.70997c-0.773414-3.867069-3.093656-13.148036-5.413898-20.108761 2.320242-4.640483 5.413897-9.280967 6.187312-11.601208 6.960725 20.108761 15.468278 49.498489-4.640484 62.646525-1.546828 0.773414-2.320242 0.773414-3.093655 0 4.640483-6.187311 9.280967-15.468278 6.960725-30.936556zM305.111782 308.592145c-0.773414-0.773414-2.320242-0.773414-2.320241 0.773414-6.187311 17.78852-10.827795 37.897281-11.601209 58.006042 1.546828-20.882175 10.054381-44.084592 13.92145-56.459214 0 3.093656 7.734139 17.015106 7.734139 18.561933 2.320242 8.507553 6.187311 16.241692 7.734139 24.749245 1.546828 6.187311 1.546828 13.148036 0.773414 19.335347v-3.093655c-3.093656-16.241692-16.241692-57.232628-18.561933-51.045317-3.093656 10.054381-10.827795 40.217523-11.601209 50.271903 0 2.320242-0.773414 5.413897-0.773414 7.734139v-10.827795V378.97281c-0.773414 36.350453 18.561934 40.217523 18.561934 40.217522 6.960725-9.280967 10.827795-21.655589 12.374622-32.483383 3.867069-15.468278 2.320242-32.483384-2.320241-49.49849 0.773414-1.546828-9.280967-31.70997-13.921451-28.616314z m333.34139-137.667674c3.867069 3.867069 8.507553 6.960725 13.92145 10.054381-4.640483-2.320242-7.734139-4.640483-10.827794-8.507553 3.867069 2.320242 6.960725 3.867069 6.960725 3.86707 9.280967-12.374622 11.601208-30.163142 3.867069-47.178248-4.640483-10.054381-15.468278-28.616314-23.97583-42.537765 0-1.546828 0.773414-3.093656 0.773413-4.640483 3.093656 5.413897 7.734139 13.148036 8.507553 13.92145 4.640483 7.734139 8.507553 15.468278 12.374623 23.202417 4.640483 8.507553 9.280967 16.241692 11.601208 26.296073 1.546828 5.413897-0.773414 37.897281-7.734139 35.577039 0.773414 0 0.773414 0.773414 1.546828 0.773414s0 1.546828 0 0.773414c18.561934-24.749245 5.413897-51.045317-6.960725-74.247734-0.773414-1.546828-11.601208-22.429003-19.335348-30.163142 0-0.773414-0.773414-1.546828-2.320241-2.320242-1.546828-1.546828-2.320242-1.546828-3.093656 0-0.773414 0.773414 0 1.546828 0.773414 2.320242 0 0.773414-0.773414 2.320242-0.773414 3.093655-4.640483-6.960725-8.507553-11.601208-8.507553-9.280967-1.546828 9.280967-4.640483 38.670695-3.093655 48.725076 2.320242 29.389728 16.241692 44.084592 26.296072 50.271903zM401.78852 198.767372c0.773414 0.773414 2.320242 1.546828 3.093655 1.546827 43.311178-18.561934 23.975831-89.716012 10.827795-122.972809-0.773414-1.546828-1.546828-0.773414-1.546828 0.773414 13.148036 34.030211 28.616314 92.809668-8.507553 116.785498 8.507553-8.507553 18.561934-26.296073 13.92145-58.006042-1.546828-9.280967-9.280967-31.70997-13.92145-45.63142 3.093656-5.413897 6.187311-10.827795 5.413897-10.827795 0.773414 1.546828 2.320242 0 1.546828-1.546827-1.546828-3.093656-4.640483 3.093656-7.734139 10.05438-0.773414-2.320242-1.546828-3.867069-2.320241-5.413897-3.093656-6.960725-20.108761 46.404834-23.202417 66.513595-3.093656 19.335347 3.867069 39.444109 17.788519 51.818731 0 0.773414 2.320242-0.773414 4.640484-3.093655z m-61.873112 58.779456c2.320242-1.546828 3.867069-3.093656 5.413897-5.413897 21.655589-16.241692 22.429003-43.311178 19.335348-69.607251 0-2.320242-3.867069-27.069486-7.734139-36.350453 0.773414-1.546828-5.413897-6.187311-6.960725-4.640484-3.867069 6.960725-8.507553 16.241692-12.374623 26.296073-4.640483 10.827795-9.280967 22.429003-10.827794 28.616314-9.280967 44.084592 13.148036 61.099698 13.148036 61.099698z m17.015106-109.05136c0.773414 3.867069 3.867069 10.054381 3.867069 11.601209 1.546828 8.507553 0 18.561934 1.546828 27.069486 0.773414 10.827795 3.093656 21.655589 0.773414 32.483384 0 2.320242-3.093656 8.507553-6.187311 14.694864 2.320242-6.187311 3.093656-13.148036 2.320241-20.108761-0.773414-12.374622-4.640483-40.217523-8.507553-54.138973 1.546828-3.867069 3.867069-7.734139 6.187312-11.601209z m-13.148037 216.555892c6.960725-6.960725 10.827795-16.241692 10.827795-26.296073 2.320242-6.960725 2.320242-13.92145 0-22.429003-1.546828-6.960725-5.413897-26.296073-12.374622-29.389728-0.773414 0 0 1.546828 0 1.546828v0.773414c-1.546828 1.546828 0.773414 3.093656 1.546827 2.320241-0.773414 0.773414 9.280967 22.429003 10.054381 25.522659 1.546828 4.640483 0 10.054381-0.773414 14.694864-3.093656-13.148036-13.148036-38.670695-14.694864-34.803625-1.546828 4.640483-5.413897 15.468278-7.734139 23.97583 1.546828-11.601208 6.187311-23.975831 10.054381-32.483383 0.773414-1.546828-1.546828-3.093656-2.320242-1.546828-5.413897 12.374622-11.601208 30.936556-10.054381 46.404834-1.546828 25.522659 15.468278 31.70997 15.468278 31.70997z m-23.97583-54.912387c3.093656-5.413897 4.640483-11.601208 6.187311-17.015106 8.507553-22.429003 2.320242-41.76435-9.280967-63.41994 1.546828 3.867069 3.093656 7.734139 5.413897 11.601209 5.413897 10.827795 6.960725 20.882175 6.187311 34.030211 0 2.320242 0 5.413897-0.773414 9.280967 0.773414-9.280967-0.773414-17.78852-3.867069-25.522658-5.413897-11.601208-20.108761-36.350453-27.8429-45.63142 0.773414-3.867069 1.546828-7.734139 1.546828-11.601209h2.320241c0 0.773414 6.187311 9.280967 9.280967 13.92145-5.413897-9.280967-11.601208-20.108761-14.694864-17.015105-0.773414 0-1.546828 0.773414-1.546828 0.773413-0.773414 3.093656-0.773414 6.187311-1.546828 10.054381 0 0-0.773414 0-0.773414 0.773414-1.546828 10.827795-3.867069 42.537764-3.093655 52.592145 5.413897 46.404834 32.483384 47.178248 32.483384 47.178248z m310.138972 229.703927c-4.640483 1.546828-9.280967 3.867069-12.374622 7.734139-6.187311 2.320242-10.827795 6.960725-14.694864 14.694864h0.773414c17.015106 16.241692 40.990937-4.640483 53.365559-17.788519 1.546828-1.546828 0.773414-2.320242-0.773414-1.546828l6.960725-6.960725c2.320242-2.320242-23.975831 0.773414-33.256798 3.867069z m-23.97583 20.882176c-1.546828-0.773414 3.093656-3.867069 6.960725-6.187312-0.773414 0.773414-0.773414 2.320242-1.546828 3.093656 0 0 11.601208 10.054381 31.70997-3.093656-11.601208 9.280967-25.522659 14.694864-37.123867 6.187312z m114.465256-109.824774c-3.093656 0.773414-13.92145-19.335347-15.468278-23.975831 1.546828 4.640483 3.093656 8.507553 4.640484 13.148037 1.546828 3.093656 6.960725 16.241692 11.601208 16.241691 8.507553-0.773414 16.241692-4.640483 23.202417-10.05438-4.640483 3.093656-10.054381 6.187311-16.241692 7.734139-2.320242 0.773414-5.413897-3.093656-7.734139-3.093656z m23.975831-4.640483c18.561934-12.374622 28.616314-31.70997 33.256798-54.912387l-4.640484 13.92145c-6.187311 15.468278-16.241692 30.936556-28.616314 40.990937z m-170.924471-58.006043c10.827795-12.374622 15.468278-30.936556 17.015106-51.045317-0.773414 8.507553-2.320242 16.241692-4.640484 23.975831-3.093656 9.280967-6.960725 18.561934-12.374622 27.069486z m-14.694864 10.827795c-10.054381 4.640483-13.92145-9.280967-17.015106-18.561934-3.093656-8.507553-4.640483-17.015106-4.640483-26.296072 2.320242 15.468278 8.507553 31.70997 17.015105 44.084592 0 0 39.444109-7.734139 34.803626-82.755287-0.773414-13.92145-9.280967-54.912387-13.92145-75.794562l1.546827-3.093655c5.413897 24.749245 15.468278 64.966767 13.921451 100.543806 3.093656-34.030211-3.867069-70.380665-10.827795-101.31722 0-0.773414-0.773414-0.773414-0.773414-0.773414-1.546828-2.320242-3.093656-1.546828-4.640483 0 0-0.773414 0-1.546828-0.773414-1.546828-3.093656-10.827795-29.389728 58.006042-35.577039 85.075529-0.773414 3.867069-1.546828 8.507553-1.546828 13.148036v0.773414c-3.093656 23.975831 3.867069 49.498489 15.468278 69.607251 0 0.773414 0.773414 0.773414 1.546828 0.773413 8.507553-1.546828 15.468278-6.960725 20.882175-14.694864-4.640483 4.640483-10.054381 8.507553-15.468278 10.827795z m-68.833837-95.129909c-5.413897-39.444109-34.803625-75.021148-57.232628-105.18429 1.546828-0.773414 2.320242-3.093656 1.546827-3.86707-3.867069-3.867069-6.187311 3.867069-6.960725 7.734139l-1.546828-1.546828c-6.960725-7.734139-3.093656 75.021148 1.546828 105.18429 4.640483 28.616314 22.429003 53.365559 44.858006 64.193354 0 0.773414 0.773414 0.773414 0.773414 0.773414 16.241692-16.241692 19.335347-44.858006 17.015106-67.287009zM471.39577 269.148036c-6.187311-13.148036-27.8429-44.084592-40.217522-60.326284 0-3.093656 0-8.507553-0.773414-9.280967 0.773414 0.773414 1.546828 0 1.546828 0 17.78852 23.975831 34.803625 50.271903 45.63142 78.888218 3.867069 10.827795 6.960725 22.429003 7.734139 34.803625-2.320242-13.148036-6.187311-27.8429-13.921451-44.084592z m-58.006042 26.296073c-3.867069-33.256798-18.561934-65.740181-34.030211-94.356496 0.773414-0.773414 1.546828-2.320242 1.546827-3.093655-2.320242-3.093656-3.867069 1.546828-4.640483 5.413897 0.773414 0 2.320242-0.773414 3.093656-2.320242 13.92145 27.069486 29.389728 61.099698 34.030211 94.356496zM363.117825 263.734139c-1.546828 16.241692-2.320242 34.030211-1.546828 51.045317v4.640484c1.546828 30.163142 14.694864 56.459215 34.030211 67.287009 0 0 16.241692-18.561934 17.78852-54.912387v-0.773414c0.773414-14.694864-1.546828-32.483384-7.734139-52.592145-4.640483-14.694864-23.202417-50.271903-31.70997-66.513595 0-0.773414 0-1.546828 0.773414-2.320242 0-0.773414 0.773414-3.093656 0.773414-6.187311h-0.773414c0.773414 0.773414-0.773414 4.640483-1.546828 6.960725-0.773414-0.773414-1.546828-2.320242-1.546827-3.093656-3.093656-5.413897-6.187311 23.975831-8.507553 54.912387 0.773414 0.773414 0.773414 0.773414 0 1.546828z m51.045317 67.287009c1.546828-11.601208 0.773414-23.202417-0.773414-34.803625 0.773414 6.960725 1.546828 13.148036 1.546828 20.108761 0 3.867069 0 9.280967-0.773414 14.694864z m139.214502-82.755287c3.093656-0.773414 6.960725-4.640483 10.827794-10.827795-3.093656 3.867069-6.960725 7.734139-10.827794 10.827795z m0 0.773414s-0.773414 0 0 0c0-0.773414 0.773414-0.773414 0.773413-0.773414-0.773414 0-1.546828 0-2.320241-0.773414 0 0.773414 0.773414 1.546828 1.546828 1.546828z m-2.320242-182.52568c0.773414 0 0.773414 0 0 0 0.773414 0 0 0 0 0-0.773414 1.546828-0.773414 1.546828 0 0z m2.320242 183.299094s0.773414 0 0 0zM372.398792 542.936556s10.827795-23.975831-3.86707-51.818731c-1.546828-4.640483-3.093656-9.280967-5.413897-13.92145-18.561934-34.030211-60.326284-52.592145-92.809668-64.966768-1.546828-0.773414-2.320242 2.320242-0.773414 3.093656 26.296073 10.827795 64.966767 28.616314 85.075529 56.459214-4.640483-4.640483-9.280967-9.280967-15.468278-13.148036-12.374622-8.507553-53.365559-27.069486-67.287009-31.70997h-0.773414c-1.546828-4.640483-3.093656-7.734139-3.093656-7.734139 1.546828 0 2.320242-3.093656 0.773414-3.093655-10.054381-2.320242 13.148036 55.685801 14.694864 60.326284 6.187311 14.694864 14.694864 30.936556 26.296073 41.76435 13.92145 17.78852 37.897281 27.8429 62.646526 24.749245z m-79.661632-52.592145c-1.546828-3.093656-3.093656-6.960725-3.867069-10.827795 4.640483 10.054381 9.280967 19.335347 13.92145 26.296073-3.867069-4.640483-7.734139-10.054381-10.054381-15.468278z m332.567976-11.601209c-1.546828-3.867069-2.320242-6.960725-3.093656-10.827794 0.773414 4.640483 1.546828 8.507553 3.093656 10.827794z m11.601208 20.882176c3.093656-5.413897 6.960725-10.827795 9.280967-13.148037-3.093656 3.093656-6.187311 7.734139-9.280967 13.148037z m-3.093655 7.734139c0.773414-3.093656 2.320242-5.413897 3.867069-7.734139-2.320242 2.320242-3.867069 5.413897-3.867069 7.734139z m-57.232629 95.129909c-4.640483 1.546828-9.280967 3.867069-12.374622 7.734139-0.773414 0.773414-3.093656 3.867069-5.413897 7.734139 4.640483-6.960725 10.827795-11.601208 17.788519-15.468278z m56.459215-229.703928c-0.773414 0-0.773414 0 0 0-0.773414 0-0.773414 0 0 0-1.546828 0 0 0.773414 0 0z m17.78852-34.030211c1.546828-29.389728-13.92145-60.326284-26.296073-85.075529-0.773414-1.546828-3.093656-0.773414-2.320242 0.773414 7.734139 16.241692 19.335347 40.990937 22.429003 64.193354-0.773414-5.413897-2.320242-10.827795-3.867069-17.015106-3.093656-9.280967-13.148036-31.70997-19.335348-44.858006 0.773414 0 0.773414-0.773414 0-1.546828s-0.773414-0.773414-1.546827-0.773414c-0.773414-1.546828-1.546828-3.867069-2.320242-4.640483-2.320242-3.867069-4.640483 13.92145-6.187311 33.256797-0.773414 2.320242-0.773414 4.640483-0.773414 4.640484-3.867069 31.70997-1.546828 61.099698 21.655589 84.302115 10.827795-6.960725 17.78852-20.882175 18.561934-33.256798z m-31.70997 13.148036c-1.546828-2.320242-2.320242-5.413897-3.093656-8.507553 3.867069 9.280967 10.054381 17.78852 17.015106 23.975831 0 0 3.093656-2.320242 5.413897-6.960725-1.546828 3.093656-3.867069 5.413897-6.187311 7.734139-3.867069 5.413897-11.601208-12.374622-13.148036-16.241692z m-108.277946-38.670695c29.389728-29.389728 0.773414-80.435045-17.015106-105.957704-0.773414-1.546828-3.093656 0.773414-2.320241 2.320242 16.241692 23.975831 40.217523 64.966767 22.429003 95.12991 4.640483-10.054381 7.734139-27.8429-3.093656-53.365559-3.093656-7.734139-13.92145-23.975831-20.882175-34.030212 0-2.320242 0-4.640483-0.773414-4.640483 1.546828 1.546828 3.093656-1.546828 1.546828-2.320242-1.546828-1.546828-2.320242 0.773414-3.86707 3.86707-0.773414-0.773414-1.546828-2.320242-2.320241-2.320242-3.867069-4.640483-4.640483 45.63142-2.320242 64.193353 1.546828 15.468278 10.054381 29.389728 20.882175 36.350454 1.546828 1.546828 3.093656 2.320242 5.413897 3.867069 2.320242-1.546828 2.320242-2.320242 2.320242-3.093656zM335.274924 407.589124c0 0.773414 0.773414 2.320242 0.773414 3.093655 0.773414 4.640483 0.773414 8.507553 0.773414 10.054381 1.546828 5.413897 3.093656 10.827795 5.413898 16.241692 0.773414 1.546828 1.546828 3.867069 1.546827 4.640483 5.413897 13.92145 18.561934 23.202417 32.483384 23.975831 0 0 7.734139-12.374622 3.093656-30.163142-3.093656-23.202417-29.389728-43.311178-45.63142-54.912387 0 0 0-0.773414-0.773414-0.773413H332.181269h-0.773414c-0.773414 0.773414-1.546828 2.320242-1.546828 3.093655 0 6.187311 3.093656 17.78852 5.413897 24.749245z m28.616315 3.867069c-7.734139-6.960725-23.975831-18.561934-30.163142-22.429003h-0.773414v-3.093655c10.054381 6.187311 22.429003 14.694864 30.936556 25.522658z m70.380664 0c0 1.546828 3.093656 1.546828 2.320242-0.773414-0.773414-2.320242-2.320242-2.320242-3.867069-0.773413-0.773414 0-1.546828 0-1.546828 0.773413-6.187311 3.867069-15.468278 14.694864-16.241692 15.468278-3.093656 3.867069-6.960725 7.734139-9.280967 11.601209 4.640483-4.640483 12.374622-7.734139 17.015106-12.374622 0.773414-0.773414 5.413897-5.413897 8.507553-9.280967v1.546828c-7.734139 7.734139-20.882175 23.975831-26.296073 32.483383-6.187311 10.054381-7.734139 23.202417-5.413897 36.350453-5.413897 0-1.546828-6.960725-2.320242-11.601208-0.773414-9.280967-0.773414-18.561934 2.320242-26.296073-6.187311 11.601208-8.507553 24.749245-4.640483 40.990937v0.773414c1.546828 0 3.093656 0.773414 4.640483 0.773414 0 1.546828 0.773414 2.320242 0.773414 3.867069 0 0 22.429003 4.640483 31.70997-34.030211 2.320242-8.507553 4.640483-35.577039 4.640483-44.858006 0-1.546828-0.773414-0.773414-2.320242 0-0.773414-1.546828 0-2.320242 0-4.640484 0 0.773414 0 0.773414 0 0zM402.561934 440.845921c-1.546828 2.320242-3.093656 4.640483-3.86707 7.734139 1.546828-3.867069 3.867069-6.960725 6.187311-10.05438l-2.320241 2.320241zM556.471299 563.818731c0.773414 0 0.773414-3.867069 0.773414-3.867069l0.773414-0.773414c-3.867069-2.320242-10.827795-12.374622-12.374622-14.694864-6.960725-7.734139-10.827795-17.015106-13.148037-27.069487-1.546828-6.960725 0-13.92145-0.773414-20.108761 0-2.320242-0.773414-8.507553-2.320241-13.148036 0.773414 0.773414 1.546828 1.546828 2.320241 3.093655 1.546828 11.601208 4.640483 31.70997 7.734139 40.990937 3.093656 11.601208 10.827795 21.655589 20.882176 27.8429-0.773414 1.546828-1.546828 2.320242-2.320242 3.86707 0.773414 0.773414 1.546828 0.773414 2.320242 0 0.773414-0.773414 0.773414-2.320242 1.546827-3.093656l4.640484 2.320242s13.92145-16.241692-6.187311-49.49849c-4.640483-7.734139-20.882175-26.296073-26.296073-32.483383-0.773414-0.773414-1.546828 0.773414-0.773414 3.867069l-2.320242-2.320242c0.773414-1.546828 1.546828-3.093656 0.773414-3.867069l-0.773414 0.773414c-0.773414 0-3.093656-1.546828-3.867069-1.546828-5.413897 3.867069 4.640483 31.70997 5.413897 37.123867 2.320242 21.655589 5.413897 42.537764 23.975831 52.592145z m40.217523-120.652568s0.773414-0.773414 0 0c0.773414-0.773414 0.773414-0.773414 0 0 0-0.773414-0.773414 0 0 0z m0.773414-0.773414h1.546827c2.320242-1.546828 3.867069-3.867069 4.640484-6.187311-1.546828 2.320242-3.867069 4.640483-6.187311 6.187311z m-2.320242-3.093655c0.773414 1.546828 1.546828 2.320242 2.320242 3.093655v-0.773414c-0.773414-0.773414-2.320242-1.546828-2.320242-2.320241z m-8.507553 77.341389c6.187311-0.773414 10.054381-3.093656 13.92145-6.960725 5.413897-3.867069 12.374622-12.374622 13.148036-30.163142 0-6.960725-3.093656-26.296073-4.640483-32.483383 0-0.773414-0.773414-0.773414-2.320242 0.773414-0.773414-0.773414-1.546828-0.773414-2.320241-0.773414-6.960725 0.773414-17.015106 21.655589-20.108762 27.069486-7.734139 13.92145-9.280967 30.936556 0 44.858006-0.773414 0.773414 1.546828-2.320242 2.320242-2.320242z m-0.773414-30.936556c-1.546828 8.507553 0 17.78852 5.413897 25.522659-1.546828 0.773414-2.320242 1.546828-3.867069 1.546828-3.093656 0.773414-1.546828-0.773414-3.093656-3.86707-3.867069-7.734139-1.546828-15.468278 1.546828-23.202417z m72.700907 76.567976s0 0.773414 0 0l1.546827-1.546827c0 0.773414-0.773414 0.773414-1.546827 1.546827z m53.365558-3.093655c-0.773414 1.546828-0.773414 2.320242 0 0zM492.277946 402.94864c-1.546828-2.320242-2.320242-4.640483-3.86707-6.960725 1.546828 3.093656 2.320242 5.413897 3.86707 6.960725z m0 0.773414h0.773414c-0.773414 0-0.773414 0-1.546828-0.773414 0.773414 0 0.773414 0 0.773414 0.773414 0.773414 0 0 0 0 0z m62.646525 88.942599s0.773414 3.867069 1.546828 3.867069c6.960725-2.320242 10.054381-8.507553 12.374622-15.468278 2.320242-5.413897 4.640483-13.92145 3.093656-26.296072-0.773414-6.960725-6.187311-25.522659-7.734139-31.70997 0-0.773414-0.773414 0-1.546828 0.773414-1.546828 0-4.640483 0.773414-4.640483 2.320241v0.773414c-4.640483 5.413897-6.960725 17.78852-8.507553 23.202417-4.640483 16.241692-3.093656 29.389728 5.413897 42.537765z m3.86707-59.552871c-2.320242 8.507553-5.413897 20.882175-6.187311 27.069487-1.546828 10.054381 1.546828 21.655589 6.960725 29.389728l-1.546828 1.546828c-5.413897 4.640483-6.187311-10.054381-7.734139-13.148036-2.320242-7.734139-3.867069-15.468278-2.320242-23.202417 1.546828-3.867069 7.734139-14.694864 10.827795-21.65559z m-32.483384-32.483383c-6.187311 16.241692-20.882175 59.55287 1.546828 71.154078 0.773414 0 0.773414-2.320242 1.546828-2.320241 0.773414-0.773414 1.546828-1.546828 2.320241-3.093656 1.546828 0.773414 2.320242 1.546828 2.320242 1.546828 6.187311-7.734139 10.054381-20.108761 8.507553-30.163142-0.773414-5.413897-3.093656-15.468278-4.640483-23.202417-0.773414-6.960725-1.546828-14.694864-4.640484-16.241692-0.773414 0-3.093656 1.546828-3.867069 1.546828v0.773414c-1.546828-0.773414-2.320242-0.773414-3.093656 0z m-2.320242 28.616314c0 1.546828-0.773414 2.320242-0.773413 3.867069-2.320242 15.468278 0.773414 24.749245 3.867069 29.389729-6.960725-8.507553-6.187311-20.882175-3.093656-33.256798z m136.120846-203.407855c-4.640483-6.960725-9.280967 46.404834-7.734139 66.513595V296.990937c0 0.773414 0 2.320242 0.773414 3.093655 0.773414 6.187311 2.320242 12.374622 3.86707 17.78852-0.773414-2.320242-0.773414-5.413897-1.546828-7.734139 4.640483 13.148036 13.148036 24.749245 24.749245 33.256797 0 0 12.374622-6.960725 13.92145-27.069486-0.773414 10.827795-3.867069 20.882175-13.148036 28.616314-2.320242 1.546828-3.867069 1.546828-6.187312 0.773414 1.546828 1.546828 3.093656 3.093656 5.413898 4.640483-5.413897 5.413897-16.241692 18.561934-27.069487 32.483384-2.320242 2.320242-3.867069 3.867069-3.867069 4.640484-19.335347 23.202417-34.030211 49.498489-27.069487 80.435045-0.773414-6.960725-0.773414-14.694864 0-18.561934 0-6.960725 2.320242-13.148036 4.640484-18.561933-3.867069 15.468278-2.320242 31.70997 3.867069 44.858006 0 0 21.655589-2.320242 37.897281-28.616314-7.734139 16.241692-19.335347 29.389728-37.897281 34.030211-2.320242 0.773414-3.867069 0-5.413897-2.320242 0 0.773414 0.773414 1.546828 0.773414 2.320242 0 0.773414-0.773414 3.093656-0.773414 3.093656 14.694864-0.773414 27.8429-13.92145 37.123867-26.296073 20.108761-27.069486 24.749245-67.287009 24.749245-100.543806 0-1.546828-2.320242-1.546828-3.093656-1.546828v-6.960725c10.054381-6.960725 14.694864-20.882175 15.468278-33.256798 0.773414-29.389728-20.108761-58.779456-34.030211-82.755287 0.773414-0.773414 1.546828-1.546828 0.773414-2.320242-0.773414-0.773414-1.546828-0.773414-3.093656 0-0.773414-1.546828-2.320242-3.093656-3.093656-4.640483z m3.093656 105.957704c2.320242 3.093656 6.960725 11.601208 12.374622 13.92145-8.507553-8.507553-13.92145-17.78852-17.788519-27.8429 0.773414 5.413897 2.320242 10.054381 5.413897 13.92145zM687.951662 232.024169c0.773414 0.773414 1.546828 0.773414 2.320241 0 4.640483-5.413897 6.960725-10.827795 7.734139-17.015106-1.546828 6.187311-4.640483 12.374622-10.05438 17.015106zM595.141994 88.942598c-0.773414 0-0.773414-2.320242-1.546828-2.320242 0 0 0.773414 1.546828 0 1.546828-1.546828 1.546828-1.546828 1.546828 0 0v2.320242c1.546828-0.773414 1.546828-0.773414 1.546828-1.546828z m0.773414 67.287009s-0.773414 0 0 0c-0.773414 0 0 0 0 0z m6.960725-37.897281c1.546828 5.413897 3.093656 10.054381 3.093656 16.241692 0 3.867069-4.640483 23.975831-10.054381 21.655589 0.773414 0 0.773414 0.773414 1.546828 0.773414s0.773414 1.546828 0.773414 0.773414c12.374622-11.601208 12.374622-24.749245 7.734139-40.990937-1.546828-6.960725-3.867069-23.975831-10.054381-27.8429 0 0.773414-0.773414 1.546828-0.773414 2.320242 1.546828 7.734139 6.960725 25.522659 7.734139 27.069486z m-6.960725-29.389728c0.773414-1.546828 0-1.546828 0 0 0 0.773414 0 0 0 0z m62.646526 102.864049v0z m-0.773414-0.773414s-0.773414 0.773414 0 0v1.546827c0.773414 0 0-1.546828 0-1.546827z m-21.655589 62.646525c0-0.773414 0-0.773414 0 0h-0.773414c-0.773414-0.773414 0.773414 0 0.773414 0zM500.012085 63.41994c0-0.773414-0.773414-1.546828-0.773414-1.546828-1.546828 1.546828-0.773414 3.093656 0.773414 1.546828 0 0.773414 0 0.773414 0 0z m0 0s0.773414 0.773414 0 0c1.546828 0 0.773414-0.773414 0 0z m11.601208 70.380664v1.546828c0-0.773414 0.773414-1.546828 0-1.546828z m-9.280967 0c0-4.640483-15.468278 20.882175-20.108761 30.936556-2.320242 4.640483-3.093656 9.280967-3.093656 14.694864-3.867069-14.694864-11.601208-28.616314-17.788519-38.670695 0-0.773414 0.773414-1.546828 0-2.320241v-0.773414s-2.320242 0.773414-3.093656 0.773414c-2.320242 1.546828-3.093656 4.640483-4.640483 9.280966-0.773414-1.546828-2.320242-3.093656-2.320242-4.640483-2.320242-3.867069-5.413897 34.030211-4.640483 47.951662 0.773414 13.148036 7.734139 25.522659 17.015105 30.936556 0 0 0.773414-0.773414 2.320242-3.093656l2.320242 2.320242c0.773414 0.773414 2.320242 2.320242 2.320241 1.546827 7.734139-6.960725 10.054381-16.241692 10.054381-26.296072 0.773414 0 1.546828 0 3.86707-1.546828v0.773414c0 0.773414 0.773414-0.773414 1.546827-1.546828 0 0 0.773414 0 0.773414-0.773414 0.773414 0.773414 1.546828 1.546828 3.093656 1.546828 3.093656-0.773414 6.187311-3.093656 7.734139-5.413897-3.093656 2.320242-6.187311 3.867069-10.827795 4.640483 4.640483-3.093656 10.827795-10.827795 13.148037-27.069486 2.320242-3.867069 2.320242-12.374622 2.320241-19.335348 1.546828-2.320242 3.867069-4.640483 5.413898-6.960725 0 16.241692 0.773414 37.897281-8.507553 49.49849 13.148036-10.827795 12.374622-40.217523 12.374622-54.912387v-0.773414c0-0.773414 0-0.773414-0.773414-1.546828-1.546828-0.773414-3.093656 0-3.093655 0.773414-1.546828 0.773414-3.867069 3.093656-5.413898 4.640484v-4.640484z m-32.483383 84.302115c0 0.773414-0.773414 0.773414-1.546828 0 3.867069-6.960725 8.507553-20.108761 0.773414-41.76435-1.546828-3.867069-5.413897-12.374622-10.054381-20.108762 0-6.187311 0-12.374622-0.773414-12.374622 0.773414 0.773414 2.320242-0.773414 3.093656-1.546828 12.374622 20.108761 27.069486 53.365559 8.507553 75.794562z m183.299093-36.350453s-0.773414-0.773414-1.546828-0.773414c0.773414 0 0.773414 0.773414 1.546828 0.773414zM281.135952 296.217523c-2.320242-13.148036-5.413897-27.069486-10.054381-40.217523-0.773414-2.320242-6.187311-6.960725-8.507553-3.093656 0 0.773414 0 1.546828 0.773414 2.320242-10.827795 31.70997-27.069486 68.833837-23.202417 102.864048 0.773414 5.413897 2.320242 11.601208 4.640483 17.015106 5.413897 27.8429 20.882175 32.483384 20.882176 32.483384 10.054381-14.694864 16.241692-34.030211 17.015105-52.592145 3.867069-17.78852 2.320242-37.897281-1.546827-58.779456z m-36.350454 39.444108c-0.773414 3.093656-0.773414 6.960725-0.773413 10.054381 0-4.640483 0-8.507553 0.773413-12.374622 1.546828-13.148036 5.413897-27.069486 10.054381-40.217523-4.640483 16.241692-9.280967 34.030211-10.054381 42.537764z m18.561934-68.060423c1.546828-3.093656 2.320242-6.960725 3.86707-10.05438 0 0 0.773414 0 0.773413-0.773414-0.773414 1.546828 4.640483 19.335347 5.413898 23.975831 3.093656 12.374622 4.640483 24.749245 6.187311 37.123867 0.773414 4.640483 0.773414 9.280967 0.773414 13.92145-3.093656-22.429003-12.374622-56.459215-17.015106-64.193354z m53.365559-38.670694c-1.546828-3.867069-3.867069-8.507553-5.413897-11.601209 0 0-0.773414-0.773414-1.546828-2.320242 3.093656 5.413897 5.413897 10.827795 6.187311 11.601209 0 0.773414 0 1.546828 0.773414 2.320242z m128.386707 204.954682c0.773414 0 1.546828 0 2.320242-0.773414v0.773414s13.148036-1.546828 20.108761-22.429003c3.867069-11.601208 5.413897-25.522659 6.187311-34.803625 0-0.773414-0.773414-0.773414-0.773414-1.546828s-2.320242-3.093656-2.320242-3.093655c-5.413897 0-12.374622 17.015106-15.468277 21.655589-8.507553 11.601208-14.694864 22.429003-10.054381 37.897281 0-0.773414-0.773414 2.320242 0 2.320241z m24.749245-57.232628c0 0.773414 0.773414 0.773414 1.546827 0.773414v0.773414c-0.773414 0-2.320242 1.546828-3.867069 3.867069 1.546828-2.320242 2.320242-4.640483 2.320242-5.413897z m-23.975831 36.350453c0.773414-5.413897 4.640483-10.827795 7.734139-15.468278 1.546828-1.546828 6.960725-7.734139 11.601208-13.148036-5.413897 6.960725-11.601208 16.241692-14.694864 21.655589-3.867069 6.960725-4.640483 16.241692-3.093655 23.975831-3.093656 0.773414-2.320242-15.468278-1.546828-17.015106zM602.876133 563.045317s0-0.773414 0 0zM441.232628 363.504532c0-1.546828-0.773414-1.546828-0.773413 0s-0.773414 3.093656-0.773414 4.640483v-1.546828c0.773414-4.640483-27.069486 17.78852-36.350454 27.842901-6.187311 6.960725-9.280967 16.241692-8.507552 25.522658-3.093656-2.320242-0.773414-15.468278 0-18.561933 2.320242-8.507553 10.054381-13.148036 16.241691-18.561934 1.546828-1.546828 27.8429-17.78852 27.842901-19.335347 0 1.546828 0 1.546828 0 0-0.773414-6.960725-20.108761 10.054381-21.655589 10.827794-15.468278 11.601208-30.163142 25.522659-24.749245 47.951662 0 0.773414 0.773414 1.546828 1.546828 2.320242h2.320241c0 0.773414 0.773414 2.320242 0.773414 3.093655 0 0 23.202417 3.093656 35.57704-27.069486 1.546828-3.093656 3.093656-10.054381 4.640483-17.015106 1.546828-6.960725 3.093656-13.92145 3.867069-20.108761z" fill="#1ca538" /><path d="M561.111782 619.504532c20.882175-40.217523 68.060423-87.39577 68.833837-109.05136 0-3.867069-75.794562 78.114804-81.981873 97.450151-16.241692 51.045317-29.389728 35.577039-30.936556 49.49849-17.015106-3.867069-38.670695-27.8429-40.990936-34.803626-3.093656-10.054381-23.975831-34.803625-23.975831-34.803625-3.867069-23.975831 4.640483-79.661631-9.280967-11.601209-35.577039-40.990937-46.404834-80.435045-45.63142-66.513595 2.320242 27.069486 40.990937 69.607251 69.607251 135.347432 33.256798 77.34139 22.429003 267.601208-28.616314 328.700907 27.8429 0 149.268882 1.546828 149.268882 1.546827-55.685801-34.803625-64.193353-281.522659-26.296073-355.770392z" fill="#65320b" /></svg>